{"title":"TimeScapes 2012 2304p DD5 1 AC3 x265 HEVC P11 mkv","uid":15062782,"size":5795770381,"categoryP":"video","categoryS":"hd___movies","magnet":"?xt=urn:btih:e35c13acd3b2e563e898f7c7a9adc486d6224f41&amp;dn=TimeScapes+2012+2304p+DD5+1+AC3+x265+HEVC+P11+mkv&amp;tr=udp%3A%2F%2Ftracker.leechers-paradise.org%3A6969&amp;tr=udp%3A%2F%2Fzer0day.ch%3A1337&amp;tr=udp%3A%2F%2Fopen.demonii.com%3A1337&amp;tr=udp%3A%2F%2Ftracker.coppersurfer.tk%3A6969&amp;tr=udp%3A%2F%2Fexodus.desync.com%3A6969","seeders":0,"leechers":1,"uploader":"punsher","files":1,"time":1466772984,"description":"Thumbnails: \nhttps://yuq.me/users/17/606/Tj2C0dyRf6.jpg\r\n\r\nscreenshot: \nhttps://yuq.me/users/17/606/0RxSkM3XcY.jpg\r\n\r\nFiles info Summary:\r\nFile size :5.7 GB\r\nOverall bit rate : 16 Mbps\r\nWidth : 4096\r\nHeight : 2304\r\n\r\nSecond Audio is Commentary!!\r\n\r\nEncode Info \r\ntoggle spoiler\r\n\r\nGeneral\r\nUnique ID : 241909176326960265597883548971232571507 (0xB5FE033D18CD5FB8A33A4C2DABCEB073)\r\nFormat : Matroska\r\nFormat version : Version 2\r\nFile size : 5.40 GiB\r\nDuration : 48mn 22s\r\nOverall bit rate : 16.0 Mbps\r\nEncoded date : UTC 2016-06-21 07:24:36\r\nWriting application : mkvmerge v9.2.0 ('Photograph') 32bit\r\nWriting library : libebml v1.3.3 + libmatroska v1.4.4\r\n\r\nVideo\r\nID : 1\r\nFormat : HEVC\r\nFormat/Info : High Efficiency Video Coding\r\nFormat profile : Main   @Main\r\nCodec ID : V_MPEGH/ISO/HEVC\r\nDuration : 48mn 21s\r\nBit rate : 15.1 Mbps\r\nWidth : 4 096 pixels\r\nHeight : 2 304 pixels\r\nDisplay aspect ratio : 16:9\r\nFrame rate mode : Constant\r\nFrame rate : 23.976 (24000/1001) fps\r\nColor space : YUV\r\nChroma subsampling : 4:2:0\r\nBit depth : 10 bits\r\nBits/(Pixel*Frame) : 0.067\r\nStream size : 5.12 GiB (95%)\r\nWriting library : x265 1.9+54-291beccb6760:[Windows][GCC 5.3.0][64 bit] 10bit\r\nEncoding settings : wpp / ctu=64 / min-cu-size=8 / max-tu-size=32 / tu-intra-depth=1 / tu-inter-depth=1 / me=3 / subme=3 / merange=57 / rect / amp / max-merge=3 / temporal-mvp / no-early-skip / rdpenalty=0 / no-tskip / no-tskip-fast / strong-intra-smoothing / no-lossless / no-cu-lossless / no-constrained-intra / no-fast-intra / open-gop / no-temporal-layers / interlace=0 / keyint=250 / min-keyint=23 / scenecut=40 / rc-lookahead=25 / lookahead-slices=4 / bframes=8 / bframe-bias=0 / b-adapt=2 / ref=6 / limit-refs=3 / limit-modes / weightp / no-weightb / aq-mode=2 / qg-size=64 / aq-strength=0.80 / cbqpoffs=0 / crqpoffs=0 / rd=5 / psy-rd=0.60 / rdoq-level=1 / psy-rdoq=12.50 / rd-refine / signhide / deblock=-1:-1 / sao / no-sao-non-deblock / b-pyramid / cutree / no-intra-refresh / rc=crf / crf=24.0 / qcomp=0.80 / qpmin=0 / qpmax=51 / qpstep=4 / ipratio=1.40 / pbratio=1.30\r\nDefault : Yes\r\nForced : No\r\n\r\nAudio #1\r\nID : 2\r\nFormat : AC-3\r\nFormat/Info : Audio Coding 3\r\nMode extension : CM (complete main)\r\nFormat settings, Endianness : Big\r\nCodec ID : A_AC3\r\nDuration : 48mn 21s\r\nBit rate mode : Constant\r\nBit rate : 640 Kbps\r\nChannel(s) : 6 channels\r\nChannel positions : Front: L C R, Side: L R, LFE\r\nSampling rate : 48.0 KHz\r\nFrame rate : 31.250 fps (1536 spf)\r\nCompression mode : Lossy\r\nStream size : 221 MiB (4%)\r\nLanguage : English\r\nDefault : Yes\r\nForced : No\r\n\r\nAudio #2\r\nID : 3\r\nFormat : AC-3\r\nFormat/Info : Audio Coding 3\r\nMode extension : CM (complete main)\r\nFormat settings, Endianness : Big\r\nCodec ID : A_AC3\r\nDuration : 48mn 22s\r\nBit rate mode : Constant\r\nBit rate : 192 Kbps\r\nChannel(s) : 2 channels\r\nChannel positions : Front: L R\r\nSampling rate : 48.0 KHz\r\nFrame rate : 31.250 fps (1536 spf)\r\nCompression mode : Lossy\r\nStream size : 66.4 MiB (1%)\r\nLanguage : English\r\nDefault : No\r\nForced : No\r\n\r\nMenu\r\n00:00:00.000 : en:Chapter 1\r\n00:00:00.375 : en:Chapter 2\r\n00:01:05.315 : en:Chapter 3\r\n00:04:28.518 : en:Chapter 4\r\n00:06:45.447 : en:Chapter 5\r\n00:10:38.054 : en:Chapter 6\r\n00:18:13.175 : en:Chapter 7\r\n00:21:04.638 : en:Chapter 8\r\n00:25:24.732 : en:Chapter 9\r\n00:30:27.576 : en:Chapter 10\r\n00:34:26.481 : en:Chapter 11\r\n00:36:51.668 : en:Chapter 12\r\n00:39:45.258 : en:Chapter 13\r\n00:40:37.810 : en:Chapter 14\r\n00:41:39.247 : en:Chapter 15\r\n00:43:43.663 : en:Chapter 16","torrent":{"xt":"urn:btih:e35c13acd3b2e563e898f7c7a9adc486d6224f41","amp;dn":"TimeScapes+2012+2304p+DD5+1+AC3+x265+HEVC+P11+mkv","amp;tr":["udp%3A%2F%2Ftracker.leechers-paradise.org%3A6969","udp%3A%2F%2Fzer0day.ch%3A1337","udp%3A%2F%2Fopen.demonii.com%3A1337","udp%3A%2F%2Ftracker.coppersurfer.tk%3A6969","udp%3A%2F%2Fexodus.desync.com%3A6969"],"infoHash":"e35c13acd3b2e563e898f7c7a9adc486d6224f41","infoHashBuffer":{"type":"Buffer","data":[227,92,19,172,211,178,229,99,232,152,247,199,169,173,196,134,214,34,79,65]},"announce":[],"urlList":[]}}